# xmcd
#
# Track frame offsets:
#	150
#	68762
#	180655
#
# Disc length: 2938 seconds
#
# Revision: 0
# Processed by: cddbd v1.4PL0 Copyright (c) Steve Scherf et al.
# Submitted via: EasyCDDAExtractor 4.6.0.1
#
DISCID=200b7803
DTITLE=James Brown - Grandmaster of Funk
DYEAR=1997
DGENRE=Funk
TTITLE0=Give it up or turn it loose/Its too funky in here/Doing it to death/Tr
TTITLE0=y me
TTITLE1=It's a man's, man's, man's world/Super bad/Disco rap
TTITLE2=Cold sweat/I can's stand myself/papa's got a brand new bag/I got you
EXTD=
EXTT0=
EXTT1=
EXTT2=
PLAYORDER=
